<?xml version="1.0" encoding="UTF-8" standalone="no"?>
<!DOCTYPE svg PUBLIC "-//W3C//DTD SVG 1.1//EN" "http://www.w3.org/Graphics/SVG/1.1/DTD/svg11.dtd">
<svg width="100%" height="100%" viewBox="0 0 1764 1764" version="1.1" xmlns="http://www.w3.org/2000/svg" xmlns:xlink="http://www.w3.org/1999/xlink" xml:space="preserve" xmlns:serif="http://www.serif.com/" style="fill-rule:evenodd;clip-rule:evenodd;stroke-linejoin:round;stroke-miterlimit:2;">
    <g transform="matrix(1,0,0,1,-872.345379,-358.565851)">
        <g transform="matrix(1.194956,0,0,1.194956,-404.75045,-303.127796)">
            <circle cx="1806.5" cy="1291.5" r="733.5" style="fill:white;"/>
        </g>
        <g transform="matrix(1.070893,0,0,1.070893,-180.631158,-142.900802)">
            <path d="M1745.26,591.887C1728.076,593.374 1712.919,580.63 1711.432,563.447C1709.946,546.264 1722.69,531.106 1739.873,529.62C1761.831,527.72 1784.053,526.75 1806.5,526.75C1828.947,526.75 1851.169,527.72 1873.127,529.62C1890.31,531.106 1903.054,546.264 1901.568,563.447C1900.081,580.63 1884.924,593.374 1867.74,591.887C1847.558,590.141 1827.132,589.25 1806.5,589.25C1785.868,589.25 1765.442,590.141 1745.26,591.887ZM1988.29,613.042C1971.629,608.583 1961.723,591.436 1966.182,574.775C1970.641,558.114 1987.788,548.208 2004.449,552.667C2047.849,564.283 2089.732,579.623 2129.736,598.325C2145.36,605.629 2152.114,624.245 2144.81,639.869C2137.505,655.493 2118.89,662.248 2103.266,654.943C2066.555,637.781 2028.118,623.702 1988.29,613.042ZM2209.208,716.271C2195.09,706.363 2191.672,686.858 2201.579,672.74C2211.487,658.622 2230.993,655.204 2245.11,665.112C2281.589,690.712 2315.733,719.417 2347.158,750.841C2359.353,763.037 2359.353,782.84 2347.158,795.035C2334.962,807.231 2315.159,807.231 2302.964,795.035C2274.092,766.164 2242.722,739.791 2209.208,716.271ZM2381.729,888.792C2371.821,874.675 2375.239,855.169 2389.357,845.262C2403.475,835.354 2422.98,838.772 2432.888,852.89C2458.347,889.166 2480.735,927.751 2499.675,968.265C2506.98,983.889 2500.225,1002.504 2484.601,1009.809C2468.977,1017.113 2450.361,1010.359 2443.057,994.734C2425.665,957.533 2405.106,922.103 2381.729,888.792ZM2484.958,1109.71C2480.499,1093.049 2490.405,1075.902 2507.066,1071.443C2523.727,1066.984 2540.874,1076.89 2545.333,1093.551C2556.691,1135.989 2564.488,1179.876 2568.38,1224.873C2569.867,1242.057 2557.123,1257.214 2539.94,1258.701C2522.757,1260.187 2507.6,1247.444 2506.113,1230.26C2502.54,1188.954 2495.384,1148.667 2484.958,1109.71ZM2506.113,1352.74C2507.6,1335.557 2522.757,1322.814 2539.94,1324.3C2557.123,1325.787 2569.867,1340.944 2568.38,1358.127C2564.488,1403.124 2556.691,1447.011 2545.333,1489.449C2540.874,1506.11 2523.727,1516.016 2507.066,1511.557C2490.405,1507.098 2480.499,1489.951 2484.958,1473.29C2495.384,1434.334 2502.54,1394.046 2506.113,1352.74ZM2443.057,1588.265C2450.361,1572.641 2468.977,1565.887 2484.601,1573.191C2500.225,1580.495 2506.98,1599.111 2499.675,1614.735C2480.735,1655.249 2458.347,1693.833 2432.888,1730.11C2422.981,1744.228 2403.475,1747.646 2389.358,1737.738C2375.24,1727.83 2371.822,1708.325 2381.729,1694.207C2405.106,1660.897 2425.665,1625.467 2443.057,1588.265ZM2302.964,1787.964C2315.16,1775.768 2334.962,1775.768 2347.158,1787.964C2359.354,1800.16 2359.354,1819.962 2347.158,1832.158C2315.734,1863.583 2281.589,1892.288 2245.111,1917.888C2230.993,1927.795 2211.488,1924.377 2201.58,1910.26C2191.672,1896.142 2195.09,1876.636 2209.208,1866.729C2242.723,1843.208 2274.093,1816.835 2302.964,1787.964ZM2103.265,1928.057C2118.89,1920.753 2137.505,1927.507 2144.809,1943.132C2152.114,1958.756 2145.359,1977.371 2129.735,1984.675C2089.732,2003.377 2047.848,2018.717 2004.449,2030.333C1987.788,2034.792 1970.641,2024.886 1966.182,2008.225C1961.722,1991.564 1971.629,1974.417 1988.29,1969.958C2028.118,1959.298 2066.554,1945.22 2103.265,1928.057ZM1867.74,1991.113C1884.924,1989.626 1900.081,2002.37 1901.568,2019.553C1903.054,2036.736 1890.31,2051.894 1873.127,2053.38C1851.169,2055.28 1828.947,2056.25 1806.5,2056.25C1784.053,2056.25 1761.831,2055.28 1739.873,2053.38C1722.69,2051.894 1709.946,2036.736 1711.432,2019.553C1712.919,2002.37 1728.076,1989.626 1745.26,1991.113C1765.442,1992.859 1785.868,1993.75 1806.5,1993.75C1827.132,1993.75 1847.558,1992.859 1867.74,1991.113ZM1624.71,1969.958C1641.371,1974.417 1651.277,1991.564 1646.818,2008.225C1642.359,2024.886 1625.212,2034.792 1608.551,2030.333C1565.151,2018.717 1523.268,2003.377 1483.264,1984.675C1467.64,1977.371 1460.886,1958.755 1468.19,1943.131C1475.495,1927.507 1494.11,1920.752 1509.734,1928.057C1546.445,1945.219 1584.882,1959.298 1624.71,1969.958ZM1403.792,1866.729C1417.91,1876.637 1421.328,1896.142 1411.421,1910.26C1401.513,1924.378 1382.007,1927.796 1367.89,1917.888C1331.411,1892.288 1297.267,1863.583 1265.842,1832.159C1253.647,1819.963 1253.647,1800.16 1265.842,1787.965C1278.038,1775.769 1297.841,1775.769 1310.036,1787.965C1338.908,1816.836 1370.278,1843.209 1403.792,1866.729ZM1231.271,1694.208C1241.179,1708.325 1237.761,1727.831 1223.643,1737.738C1209.525,1747.646 1190.02,1744.228 1180.112,1730.11C1154.653,1693.834 1132.265,1655.249 1113.325,1614.735C1106.02,1599.111 1112.775,1580.496 1128.399,1573.191C1144.023,1565.887 1162.639,1572.641 1169.943,1588.266C1187.335,1625.467 1207.894,1660.897 1231.271,1694.208ZM1128.042,1473.29C1132.501,1489.951 1122.595,1507.098 1105.934,1511.557C1089.273,1516.016 1072.126,1506.11 1067.667,1489.449C1056.309,1447.011 1048.512,1403.124 1044.62,1358.127C1043.133,1340.943 1055.877,1325.786 1073.06,1324.299C1090.243,1322.813 1105.4,1335.556 1106.887,1352.74C1110.46,1394.046 1117.616,1434.333 1128.042,1473.29ZM1106.887,1230.26C1105.4,1247.443 1090.243,1260.186 1073.06,1258.7C1055.877,1257.213 1043.133,1242.056 1044.62,1224.873C1048.512,1179.876 1056.309,1135.989 1067.667,1093.551C1072.126,1076.89 1089.273,1066.984 1105.934,1071.443C1122.595,1075.902 1132.501,1093.049 1128.042,1109.71C1117.616,1148.666 1110.46,1188.954 1106.887,1230.26ZM1169.943,994.735C1162.639,1010.359 1144.023,1017.113 1128.399,1009.809C1112.775,1002.505 1106.02,983.889 1113.325,968.265C1132.265,927.751 1154.653,889.167 1180.112,852.89C1190.019,838.772 1209.525,835.354 1223.642,845.262C1237.76,855.17 1241.178,874.675 1231.271,888.793C1207.894,922.103 1187.335,957.533 1169.943,994.735ZM1310.036,795.036C1297.84,807.232 1278.038,807.232 1265.842,795.036C1253.646,782.84 1253.646,763.038 1265.842,750.842C1297.266,719.417 1331.411,690.712 1367.889,665.112C1382.007,655.205 1401.512,658.623 1411.42,672.74C1421.328,686.858 1417.91,706.364 1403.792,716.271C1370.277,739.792 1338.907,766.165 1310.036,795.036ZM1509.735,654.943C1494.11,662.247 1475.495,655.493 1468.191,639.868C1460.886,624.244 1467.641,605.629 1483.265,598.325C1523.268,579.623 1565.152,564.283 1608.551,552.667C1625.212,548.208 1642.359,558.114 1646.818,574.775C1651.278,591.436 1641.371,608.583 1624.71,613.042C1584.882,623.702 1546.446,637.78 1509.735,654.943Z" style="fill:rgb(39,97,63);"/>
        </g>
        <g transform="matrix(5.95,0,0,5.95,-5685.412239,-4851.93415)">
            <g transform="matrix(0.0889,0,0,0.0889,1250.310851,1023.88099)">
                <g transform="matrix(1,0,0,1,-1666.666667,-1666.666667)">
                    <g id="Page-1" transform="matrix(166.666667,0,0,166.666667,500,0)">
                        <g id="Dribbble-Light-Preview" transform="matrix(0.8074,0,0,0.8074,-178.702,-4357.2266)">
                            <g id="icons" transform="matrix(1,0,0,1,56,160)">
                                <path id="pin_fill_sharp_circle---634-" serif:id="pin_fill_sharp_circle-[#634]" d="M174,5248.219C172.895,5248.219 172,5247.324 172,5246.219C172,5245.114 172.895,5244.219 174,5244.219C175.105,5244.219 176,5245.114 176,5246.219C176,5247.324 175.105,5248.219 174,5248.219M174,5239C170.134,5239 167,5242.134 167,5246C167,5249.866 174,5259 174,5259C174,5259 181,5249.866 181,5246C181,5242.134 177.866,5239 174,5239" style="fill:rgb(39,97,63);"/>
                            </g>
                        </g>
                    </g>
                </g>
            </g>
        </g>
    </g>
</svg>
